<?xml version="1.0" encoding="UTF-8"?>
<!-- Derived from https://upload.wikimedia.org/wikipedia/commons/9/93/1C_Company_logo.svg; registered-mark glyph removed. -->
<svg xmlns="http://www.w3.org/2000/svg" width="489.7601" height="238.85815" viewBox="0 0 489.76011 238.85816" role="img" aria-label="1C">
  <defs>
    <clipPath id="clipPath18">
      <path d="M 0,0 H 595.276 V 595.276 H 0 Z" />
    </clipPath>
  </defs>
  <g transform="matrix(1.3333333,0,0,-1.3333333,53.68649,897.18964)">
    <g transform="matrix(5.8427196,0,0,5.8427196,-1583.8366,-2391.086)">
      <g clip-path="url(#clipPath18)">
        <g transform="translate(296.8092,497.8276)">
          <path d="m 0,0 c -1.215,0.081 -2.616,0.294 -3.721,0.614 -0.207,0.06 -1.064,0.375 -1.282,0.475 -3.847,1.782 -6.527,5.672 -6.527,10.185 0,6.19 5.036,11.232 11.23,11.232 6.139,0 11.141,-4.956 11.227,-11.076 h 4.057 C 14.898,19.786 8.077,26.558 -0.3,26.558 c -8.427,0 -15.286,-6.855 -15.286,-15.284 0,-5.811 3.268,-10.865 8.053,-13.447 0.864,-0.457 2.104,-0.928 2.525,-1.057 1.364,-0.406 3.038,-0.676 4.528,-0.789 0.506,-0.038 2.273,-0.058 2.788,-0.06 h 27.938 v 4.041 H 2.355 C 1.984,-0.038 0.363,-0.024 0,0 m 2.355,6.345 v 0 c -0.295,0 -1.838,0.01 -2.123,0.034 -0.483,0.041 -1.183,0.113 -1.633,0.216 -0.508,0.136 -0.985,0.316 -1.2,0.434 -1.507,0.815 -2.534,2.409 -2.534,4.245 0,2.671 2.163,4.837 4.835,4.837 2.616,0 4.743,-2.081 4.828,-4.681 h 3.898 c -0.082,4.75 -3.954,8.578 -8.726,8.578 -4.825,0 -8.736,-3.91 -8.736,-8.734 0,-3.402 1.95,-6.34 4.79,-7.779 C -3.809,3.239 -2.987,2.971 -2.753,2.91 -1.951,2.699 -0.874,2.555 0,2.491 0.323,2.464 1.905,2.452 2.239,2.45 V 2.444 H 30.245 V 6.345 Z M -18.086,-4.064 h -4.084 v 26.561 h -5.968 v 4.085 h 10.052 z m -14.536,24.52 v -3.928 h 4.484 V -4.064 h 3.924 v 24.52 z" fill="#d91920" />
        </g>
      </g>
    </g>
  </g>
</svg>
