<svg width="164" height="31" viewBox="0 0 164 31" fill="none" xmlns="http://www.w3.org/2000/svg">
<path d="M18.7164 1.83334C17.8074 1.83334 17.0706 2.56716 17.0706 3.47236V20.1833C17.0706 24.8776 13.2492 28.683 8.53528 28.683H7.0969C3.17739 28.683 0 25.5189 0 21.6157C0 17.7125 3.17739 14.5483 7.0969 14.5483H12.6529V16.3817H7.0969C4.19415 16.3817 1.84101 18.725 1.84101 21.6157C1.84101 24.5063 4.19415 26.8497 7.0969 26.8497H8.53528C12.2324 26.8497 15.2296 23.865 15.2296 20.1833V3.47236C15.2296 1.55463 16.7907 0 18.7164 0C20.6422 0 22.2033 1.55463 22.2033 3.47235V10.7724C22.2033 11.2728 22.8108 11.5235 23.1662 11.1696L30.2915 4.07395C31.5777 2.79305 33.6632 2.79305 34.9494 4.07395C36.2357 5.35486 36.2357 7.43163 34.9494 8.71251L29.555 14.0843C27.4223 16.2081 27.4222 19.6515 29.5549 21.7753L32.1323 24.3419C33.5605 25.7642 33.5605 28.0701 32.1323 29.4924C30.7041 30.9146 28.3886 30.9146 26.9604 29.4924L20.0962 22.6568L21.398 21.3604L28.2621 28.196C28.9714 28.9023 30.1213 28.9023 30.8305 28.196C31.5398 27.4897 31.5398 26.3446 30.8305 25.6383L28.2531 23.0717C25.4015 20.2319 25.4015 15.6276 28.2532 12.7879L33.6476 7.41613C34.2149 6.8512 34.2149 5.93525 33.6476 5.37032C33.0803 4.80539 32.1606 4.80539 31.5933 5.37032L24.468 12.466C22.9529 13.9748 20.3623 12.9062 20.3623 10.7724V3.47235C20.3623 2.56716 19.6254 1.83334 18.7164 1.83334Z" fill="white"/>
<path fill-rule="evenodd" clip-rule="evenodd" d="M50.7923 22.8782C49.8169 22.8782 48.9616 22.6466 48.2263 22.1833C47.506 21.7201 46.9433 21.0701 46.5381 20.2332C46.148 19.3815 45.9529 18.3803 45.9529 17.2296C45.9529 16.0641 46.148 15.0629 46.5381 14.226C46.9433 13.3743 47.506 12.7242 48.2263 12.2759C48.9616 11.8127 49.8169 11.5811 50.7923 11.5811C51.7827 11.5811 52.6305 11.8276 53.3358 12.3208C53.8492 12.6797 54.2393 13.1298 54.5062 13.6709V7.63603C54.5062 7.33716 54.5812 7.11301 54.7313 6.96358C54.8964 6.79921 55.129 6.71702 55.4291 6.71702C55.7142 6.71702 55.9318 6.79921 56.0818 6.96358C56.2469 7.11301 56.3294 7.33716 56.3294 7.63603V21.892C56.3294 22.1908 56.2544 22.4224 56.1043 22.5868C55.9543 22.7512 55.7292 22.8334 55.4291 22.8334C55.144 22.8334 54.9189 22.7512 54.7538 22.5868C54.6037 22.4224 54.5287 22.1908 54.5287 21.892V20.7299C54.2588 21.2834 53.8612 21.7455 53.3358 22.1161C52.6305 22.6242 51.7827 22.8782 50.7923 22.8782ZM51.1749 21.4212C51.8502 21.4212 52.4429 21.2569 52.9531 20.9281C53.4633 20.5994 53.8535 20.1212 54.1236 19.4935C54.4087 18.8659 54.5512 18.1113 54.5512 17.2296C54.5512 15.8698 54.2436 14.8312 53.6284 14.114C53.0281 13.3967 52.2103 13.038 51.1749 13.038C50.4847 13.038 49.8844 13.2024 49.3742 13.5312C48.879 13.845 48.4889 14.3157 48.2038 14.9433C47.9337 15.556 47.7986 16.3181 47.7986 17.2296C47.7986 18.5745 48.1063 19.6131 48.7215 20.3453C49.3367 21.0626 50.1545 21.4212 51.1749 21.4212Z" fill="white"/>
<path d="M60.7263 22.7886C60.4262 22.7886 60.2011 22.7064 60.051 22.542C59.901 22.3627 59.8259 22.1161 59.8259 21.8023V12.6346C59.8259 12.3208 59.901 12.0817 60.051 11.9173C60.2011 11.7529 60.4262 11.6707 60.7263 11.6707C61.0114 11.6707 61.2365 11.7529 61.4015 11.9173C61.5666 12.0817 61.6491 12.3208 61.6491 12.6346V21.8023C61.6491 22.1161 61.5666 22.3627 61.4015 22.542C61.2515 22.7064 61.0264 22.7886 60.7263 22.7886Z" fill="white"/>
<path d="M60.7263 9.16025C60.3511 9.16025 60.0585 9.06312 59.8484 8.86885C59.6384 8.65965 59.5333 8.3832 59.5333 8.0395C59.5333 7.68086 59.6384 7.41188 59.8484 7.23256C60.0585 7.0383 60.3511 6.94117 60.7263 6.94117C61.1164 6.94117 61.409 7.0383 61.6041 7.23256C61.8142 7.41188 61.9192 7.68086 61.9192 8.0395C61.9192 8.3832 61.8142 8.65965 61.6041 8.86885C61.409 9.06312 61.1164 9.16025 60.7263 9.16025Z" fill="white"/>
<path fill-rule="evenodd" clip-rule="evenodd" d="M69.9718 26.9129C69.1765 26.9129 68.3962 26.8158 67.6309 26.6215C66.8806 26.4422 66.1979 26.1508 65.5826 25.7473C65.4026 25.6427 65.2825 25.5157 65.2225 25.3663C65.1775 25.2168 65.17 25.0674 65.2 24.918C65.23 24.7835 65.2975 24.6565 65.4026 24.5369C65.5076 24.4323 65.6277 24.3651 65.7627 24.3352C65.9128 24.3053 66.0628 24.3277 66.2129 24.4024C66.8731 24.8059 67.5034 25.0823 68.1036 25.2318C68.7038 25.3812 69.2966 25.4559 69.8818 25.4559C70.9472 25.4559 71.75 25.172 72.2902 24.6042C72.8454 24.0363 73.1231 23.2144 73.1231 22.1385V20.2405C72.8584 20.815 72.4532 21.2908 71.9076 21.6678C71.1873 22.1759 70.3395 22.4299 69.3641 22.4299C68.3587 22.4299 67.4884 22.2058 66.7531 21.7575C66.0178 21.2942 65.4476 20.6517 65.0424 19.8298C64.6523 19.0079 64.4572 18.059 64.4572 16.9831C64.4572 16.1761 64.5697 15.4439 64.7948 14.7864C65.0199 14.114 65.3425 13.5461 65.7627 13.0829C66.1979 12.6047 66.7156 12.2386 67.3158 11.9845C67.931 11.7156 68.6138 11.5811 69.3641 11.5811C70.3545 11.5811 71.2098 11.8351 71.9301 12.3432C72.4565 12.7036 72.8466 13.1597 73.1005 13.7117V12.5449C73.1005 12.246 73.1756 12.0219 73.3256 11.8725C73.4907 11.7081 73.7158 11.6259 74.0009 11.6259C74.301 11.6259 74.5261 11.7081 74.6761 11.8725C74.8262 12.0219 74.9012 12.246 74.9012 12.5449V21.892C74.9012 23.5507 74.4811 24.7984 73.6407 25.6352C72.8154 26.487 71.5925 26.9129 69.9718 26.9129ZM69.7017 20.9505C70.407 20.9505 71.0147 20.7936 71.5249 20.4798C72.0351 20.1511 72.4253 19.6878 72.6954 19.0901C72.9805 18.4923 73.1231 17.79 73.1231 16.9831C73.1231 15.7727 72.8154 14.8163 72.2002 14.114C71.585 13.3967 70.7521 13.038 69.7017 13.038C69.0115 13.038 68.4112 13.2024 67.901 13.5312C67.3908 13.845 66.9932 14.3007 66.7081 14.8985C66.438 15.4813 66.3029 16.1761 66.3029 16.9831C66.3029 18.1935 66.6105 19.1573 67.2258 19.8746C67.841 20.5919 68.6663 20.9505 69.7017 20.9505Z" fill="white"/>
<path d="M79.2965 22.7886C78.9964 22.7886 78.7713 22.7064 78.6213 22.542C78.4712 22.3627 78.3962 22.1161 78.3962 21.8023V12.6346C78.3962 12.3208 78.4712 12.0817 78.6213 11.9173C78.7713 11.7529 78.9964 11.6707 79.2965 11.6707C79.5816 11.6707 79.8067 11.7529 79.9718 11.9173C80.1368 12.0817 80.2194 12.3208 80.2194 12.6346V21.8023C80.2194 22.1161 80.1368 22.3627 79.9718 22.542C79.8217 22.7064 79.5966 22.7886 79.2965 22.7886Z" fill="white"/>
<path d="M79.2965 9.16025C78.9214 9.16025 78.6288 9.06312 78.4187 8.86885C78.2086 8.65965 78.1036 8.3832 78.1036 8.0395C78.1036 7.68086 78.2086 7.41188 78.4187 7.23256C78.6288 7.0383 78.9214 6.94117 79.2965 6.94117C79.6867 6.94117 79.9793 7.0383 80.1744 7.23256C80.3844 7.41188 80.4895 7.68086 80.4895 8.0395C80.4895 8.3832 80.3844 8.65965 80.1744 8.86885C79.9793 9.06312 79.6867 9.16025 79.2965 9.16025Z" fill="white"/>
<path d="M88.0919 22.8782C87.2366 22.8782 86.5163 22.7288 85.9311 22.4299C85.3608 22.1161 84.9332 21.6678 84.6481 21.085C84.363 20.4873 84.2204 19.7625 84.2204 18.9108V13.1949H82.7123C82.4572 13.1949 82.2621 13.1352 82.1271 13.0156C81.992 12.8811 81.9245 12.7018 81.9245 12.4777C81.9245 12.2535 81.992 12.0817 82.1271 11.9621C82.2621 11.8426 82.4572 11.7828 82.7123 11.7828H84.2204V9.20508C84.2204 8.90621 84.3029 8.68206 84.468 8.53263C84.6331 8.36826 84.8581 8.28607 85.1432 8.28607C85.4284 8.28607 85.6459 8.36826 85.796 8.53263C85.9611 8.68206 86.0436 8.90621 86.0436 9.20508V11.7828H88.8797C89.1348 11.7828 89.3299 11.8426 89.4649 11.9621C89.6 12.0817 89.6675 12.2535 89.6675 12.4777C89.6675 12.7018 89.6 12.8811 89.4649 13.0156C89.3299 13.1352 89.1348 13.1949 88.8797 13.1949H86.0436V18.7314C86.0436 19.5832 86.2237 20.2332 86.5838 20.6815C86.944 21.1149 87.5292 21.3316 88.3395 21.3316C88.6246 21.3316 88.8647 21.3017 89.0598 21.2419C89.2698 21.1821 89.4424 21.1523 89.5775 21.1523C89.7125 21.1373 89.8251 21.1821 89.9151 21.2867C90.0051 21.3914 90.0502 21.5707 90.0502 21.8247C90.0502 22.004 90.0126 22.1684 89.9376 22.3178C89.8776 22.4673 89.765 22.5719 89.6 22.6316C89.4199 22.6914 89.1798 22.7437 88.8797 22.7886C88.5946 22.8483 88.332 22.8782 88.0919 22.8782Z" fill="white"/>
<path fill-rule="evenodd" clip-rule="evenodd" d="M95.0908 22.8782C94.3405 22.8782 93.6652 22.7362 93.065 22.4523C92.4798 22.1535 92.0146 21.75 91.6695 21.2419C91.3243 20.7338 91.1518 20.166 91.1518 19.5384C91.1518 18.7314 91.3544 18.0963 91.7595 17.6331C92.1797 17.1699 92.8624 16.8411 93.8078 16.6468C94.7682 16.4526 96.0737 16.3555 97.7243 16.3555H98.4446V15.6606C98.4446 14.7341 98.257 14.0691 97.8819 13.6657C97.5067 13.2472 96.8915 13.038 96.0362 13.038C95.511 13.038 94.9858 13.1053 94.4606 13.2398C93.9354 13.3743 93.3801 13.5909 92.7949 13.8898C92.5848 13.9944 92.4048 14.0318 92.2547 14.0019C92.1046 13.9571 91.9846 13.8749 91.8946 13.7553C91.8045 13.6358 91.752 13.5013 91.737 13.3518C91.722 13.1875 91.752 13.0306 91.827 12.8811C91.9171 12.7317 92.0521 12.6122 92.2322 12.5225C92.8925 12.1937 93.5452 11.9546 94.1904 11.8052C94.8357 11.6558 95.4509 11.5811 96.0362 11.5811C96.9815 11.5811 97.7618 11.738 98.3771 12.0518C98.9923 12.3506 99.45 12.8139 99.7501 13.4415C100.05 14.0542 100.2 14.8462 100.2 15.8175V21.892C100.2 22.1908 100.125 22.4224 99.9752 22.5868C99.8401 22.7512 99.6375 22.8334 99.3674 22.8334C99.0823 22.8334 98.8648 22.7512 98.7147 22.5868C98.5646 22.4224 98.4896 22.1908 98.4896 21.892V20.7963C98.3641 21.0932 98.199 21.3613 97.9944 21.6006C97.6643 22.004 97.2516 22.3178 96.7564 22.542C96.2612 22.7661 95.706 22.8782 95.0908 22.8782ZM98.4446 18.2159V17.5434H97.7468C96.5313 17.5434 95.571 17.6032 94.8657 17.7228C94.1754 17.8274 93.6878 18.0142 93.4026 18.2831C93.1325 18.5521 92.9975 18.9332 92.9975 19.4263C92.9975 20.039 93.2076 20.5396 93.6277 20.9281C94.0629 21.3166 94.6481 21.5109 95.3834 21.5109C95.9836 21.5109 96.5088 21.3689 96.959 21.085C97.4242 20.8011 97.7843 20.4126 98.0394 19.9194C98.3095 19.4263 98.4446 18.8585 98.4446 18.2159Z" fill="white"/>
<path d="M106.989 22.8782C105.909 22.8782 105.083 22.5495 104.513 21.892C103.943 21.2344 103.658 20.293 103.658 19.0677V7.63603C103.658 7.33716 103.733 7.11301 103.883 6.96358C104.033 6.79921 104.258 6.71702 104.558 6.71702C104.843 6.71702 105.068 6.79921 105.233 6.96358C105.398 7.11301 105.481 7.33716 105.481 7.63603V18.9332C105.481 19.7401 105.639 20.3453 105.954 20.7488C106.284 21.1373 106.764 21.3316 107.394 21.3316C107.529 21.3316 107.649 21.3241 107.754 21.3092C107.859 21.2942 107.964 21.2867 108.069 21.2867C108.235 21.2718 108.347 21.3092 108.407 21.3988C108.482 21.4885 108.52 21.6678 108.52 21.9368C108.52 22.2058 108.46 22.4075 108.34 22.542C108.219 22.6765 108.024 22.7661 107.754 22.811C107.634 22.8259 107.507 22.8409 107.372 22.8558C107.237 22.8707 107.109 22.8782 106.989 22.8782Z" fill="white"/>
<path d="M111.293 22.8334C110.993 22.8334 110.768 22.7512 110.618 22.5868C110.468 22.4224 110.393 22.1908 110.393 21.892V7.63603C110.393 7.33716 110.468 7.11301 110.618 6.96358C110.768 6.79921 110.993 6.71702 111.293 6.71702C111.578 6.71702 111.804 6.79921 111.969 6.96358C112.134 7.11301 112.216 7.33716 112.216 7.63603V16.6244H112.261L116.876 12.2311C117.086 12.0368 117.266 11.8874 117.416 11.7828C117.581 11.6782 117.798 11.6259 118.068 11.6259C118.309 11.6259 118.496 11.6931 118.631 11.8276C118.766 11.9472 118.826 12.1041 118.811 12.2983C118.811 12.4777 118.721 12.6719 118.541 12.8811L114.158 17.0257L118.969 21.5333C119.179 21.7425 119.284 21.9443 119.284 22.1385C119.284 22.3328 119.209 22.4972 119.059 22.6316C118.924 22.7661 118.744 22.8334 118.519 22.8334C118.249 22.8334 118.031 22.7811 117.866 22.6765C117.701 22.5569 117.498 22.3851 117.258 22.1609L112.261 17.5659H112.216V21.892C112.216 22.5196 111.909 22.8334 111.293 22.8334Z" fill="white"/>
<path fill-rule="evenodd" clip-rule="evenodd" d="M125.056 22.8782C124.306 22.8782 123.631 22.7362 123.031 22.4523C122.445 22.1535 121.98 21.75 121.635 21.2419C121.29 20.7338 121.117 20.166 121.117 19.5384C121.117 18.7314 121.32 18.0963 121.725 17.6331C122.145 17.1699 122.828 16.8411 123.773 16.6468C124.734 16.4526 126.039 16.3555 127.69 16.3555H128.41V15.6606C128.41 14.7341 128.223 14.0691 127.847 13.6657C127.472 13.2472 126.857 13.038 126.002 13.038C125.477 13.038 124.951 13.1053 124.426 13.2398C123.901 13.3743 123.346 13.5909 122.76 13.8898C122.55 13.9944 122.37 14.0318 122.22 14.0019C122.07 13.9571 121.95 13.8749 121.86 13.7553C121.77 13.6358 121.718 13.5013 121.703 13.3518C121.688 13.1875 121.718 13.0306 121.793 12.8811C121.883 12.7317 122.018 12.6122 122.198 12.5225C122.858 12.1937 123.511 11.9546 124.156 11.8052C124.801 11.6558 125.416 11.5811 126.002 11.5811C126.947 11.5811 127.727 11.738 128.343 12.0518C128.958 12.3506 129.416 12.8139 129.716 13.4415C130.016 14.0542 130.166 14.8462 130.166 15.8175V21.892C130.166 22.1908 130.091 22.4224 129.941 22.5868C129.806 22.7512 129.603 22.8334 129.333 22.8334C129.048 22.8334 128.83 22.7512 128.68 22.5868C128.53 22.4224 128.455 22.1908 128.455 21.892V20.7963C128.33 21.0932 128.165 21.3613 127.96 21.6006C127.63 22.004 127.217 22.3178 126.722 22.542C126.227 22.7661 125.672 22.8782 125.056 22.8782ZM128.41 18.2159V17.5434H127.712C126.497 17.5434 125.537 17.6032 124.831 17.7228C124.141 17.8274 123.653 18.0142 123.368 18.2831C123.098 18.5521 122.963 18.9332 122.963 19.4263C122.963 20.039 123.173 20.5396 123.593 20.9281C124.028 21.3166 124.614 21.5109 125.349 21.5109C125.949 21.5109 126.474 21.3689 126.925 21.085C127.39 20.8011 127.75 20.4126 128.005 19.9194C128.275 19.4263 128.41 18.8585 128.41 18.2159Z" fill="white"/>
<path d="M137.315 22.8782C136.639 22.8782 135.957 22.796 135.266 22.6316C134.591 22.4673 133.961 22.1833 133.376 21.7799C133.226 21.6753 133.121 21.5557 133.061 21.4212C133.001 21.2718 132.978 21.1298 132.993 20.9954C133.023 20.8459 133.083 20.7189 133.173 20.6143C133.278 20.5097 133.398 20.4499 133.533 20.435C133.683 20.4051 133.848 20.435 134.028 20.5246C134.614 20.8833 135.176 21.1373 135.717 21.2867C136.272 21.4212 136.82 21.4885 137.36 21.4885C138.215 21.4885 138.86 21.3316 139.295 21.0178C139.731 20.704 139.948 20.2781 139.948 19.7401C139.948 19.3217 139.806 18.9929 139.521 18.7539C139.235 18.4998 138.785 18.3056 138.17 18.1711L136.122 17.7228C135.176 17.5285 134.471 17.1923 134.006 16.7141C133.556 16.2359 133.331 15.6158 133.331 14.8536C133.331 14.1812 133.503 13.6059 133.848 13.1277C134.208 12.6346 134.711 12.2535 135.356 11.9845C136.002 11.7156 136.752 11.5811 137.607 11.5811C138.268 11.5811 138.89 11.6707 139.476 11.85C140.076 12.0144 140.616 12.2834 141.096 12.657C141.246 12.7616 141.344 12.8886 141.389 13.038C141.449 13.1725 141.456 13.3145 141.411 13.4639C141.381 13.5984 141.314 13.718 141.209 13.8226C141.104 13.9122 140.976 13.9645 140.826 13.9795C140.676 13.9944 140.518 13.9496 140.353 13.845C139.903 13.5461 139.446 13.3294 138.98 13.1949C138.515 13.0455 138.057 12.9708 137.607 12.9708C136.767 12.9708 136.129 13.1352 135.694 13.4639C135.259 13.7927 135.041 14.226 135.041 14.764C135.041 15.1824 135.176 15.5261 135.446 15.7951C135.717 16.0641 136.137 16.2583 136.707 16.3779L138.755 16.8038C139.731 17.013 140.458 17.3492 140.939 17.8124C141.434 18.2607 141.681 18.8734 141.681 19.6505C141.681 20.6367 141.284 21.4212 140.488 22.004C139.693 22.5868 138.635 22.8782 137.315 22.8782Z" fill="white"/>
<path d="M148.226 22.8782C147.551 22.8782 146.868 22.796 146.178 22.6316C145.503 22.4673 144.873 22.1833 144.287 21.7799C144.137 21.6753 144.032 21.5557 143.972 21.4212C143.912 21.2718 143.89 21.1298 143.905 20.9954C143.935 20.8459 143.995 20.7189 144.085 20.6143C144.19 20.5097 144.31 20.4499 144.445 20.435C144.595 20.4051 144.76 20.435 144.94 20.5246C145.525 20.8833 146.088 21.1373 146.628 21.2867C147.184 21.4212 147.731 21.4885 148.271 21.4885C149.127 21.4885 149.772 21.3316 150.207 21.0178C150.642 20.704 150.86 20.2781 150.86 19.7401C150.86 19.3217 150.717 18.9929 150.432 18.7539C150.147 18.4998 149.697 18.3056 149.082 18.1711L147.033 17.7228C146.088 17.5285 145.383 17.1923 144.918 16.7141C144.467 16.2359 144.242 15.6158 144.242 14.8536C144.242 14.1812 144.415 13.6059 144.76 13.1277C145.12 12.6346 145.623 12.2535 146.268 11.9845C146.913 11.7156 147.664 11.5811 148.519 11.5811C149.179 11.5811 149.802 11.6707 150.387 11.85C150.987 12.0144 151.528 12.2834 152.008 12.657C152.158 12.7616 152.255 12.8886 152.3 13.038C152.361 13.1725 152.368 13.3145 152.323 13.4639C152.293 13.5984 152.225 13.718 152.12 13.8226C152.015 13.9122 151.888 13.9645 151.738 13.9795C151.588 13.9944 151.43 13.9496 151.265 13.845C150.815 13.5461 150.357 13.3294 149.892 13.1949C149.427 13.0455 148.969 12.9708 148.519 12.9708C147.679 12.9708 147.041 13.1352 146.606 13.4639C146.171 13.7927 145.953 14.226 145.953 14.764C145.953 15.1824 146.088 15.5261 146.358 15.7951C146.628 16.0641 147.048 16.2583 147.619 16.3779L149.667 16.8038C150.642 17.013 151.37 17.3492 151.85 17.8124C152.345 18.2607 152.593 18.8734 152.593 19.6505C152.593 20.6367 152.195 21.4212 151.4 22.004C150.605 22.5868 149.547 22.8782 148.226 22.8782Z" fill="white"/>
<path fill-rule="evenodd" clip-rule="evenodd" d="M158.891 22.8782C158.14 22.8782 157.465 22.7362 156.865 22.4523C156.28 22.1535 155.814 21.75 155.469 21.2419C155.124 20.7338 154.952 20.166 154.952 19.5384C154.952 18.7314 155.154 18.0963 155.559 17.6331C155.979 17.1699 156.662 16.8411 157.608 16.6468C158.568 16.4526 159.873 16.3555 161.524 16.3555H162.244V15.6606C162.244 14.7341 162.057 14.0691 161.682 13.6657C161.306 13.2472 160.691 13.038 159.836 13.038C159.311 13.038 158.785 13.1053 158.26 13.2398C157.735 13.3743 157.18 13.5909 156.595 13.8898C156.385 13.9944 156.204 14.0318 156.054 14.0019C155.904 13.9571 155.784 13.8749 155.694 13.7553C155.604 13.6358 155.552 13.5013 155.537 13.3518C155.522 13.1875 155.552 13.0306 155.627 12.8811C155.717 12.7317 155.852 12.6122 156.032 12.5225C156.692 12.1937 157.345 11.9546 157.99 11.8052C158.635 11.6558 159.251 11.5811 159.836 11.5811C160.781 11.5811 161.562 11.738 162.177 12.0518C162.792 12.3506 163.25 12.8139 163.55 13.4415C163.85 14.0542 164 14.8462 164 15.8175V21.892C164 22.1908 163.925 22.4224 163.775 22.5868C163.64 22.7512 163.437 22.8334 163.167 22.8334C162.882 22.8334 162.664 22.7512 162.514 22.5868C162.364 22.4224 162.289 22.1908 162.289 21.892V20.7963C162.164 21.0932 161.999 21.3613 161.794 21.6006C161.464 22.004 161.051 22.3178 160.556 22.542C160.061 22.7661 159.506 22.8782 158.891 22.8782ZM162.244 18.2159V17.5434H161.547C160.331 17.5434 159.371 17.6032 158.665 17.7228C157.975 17.8274 157.487 18.0142 157.202 18.2831C156.932 18.5521 156.797 18.9332 156.797 19.4263C156.797 20.039 157.007 20.5396 157.427 20.9281C157.863 21.3166 158.448 21.5109 159.183 21.5109C159.783 21.5109 160.309 21.3689 160.759 21.085C161.224 20.8011 161.584 20.4126 161.839 19.9194C162.109 19.4263 162.244 18.8585 162.244 18.2159Z" fill="white"/>
</svg>

