<svg xmlns="http://www.w3.org/2000/svg" xmlns:xlink="http://www.w3.org/1999/xlink" width="209.98080000000004" height="37.1524"><path fill="#000" d="M12.46 29.42L16.29 29.42L16.29 7.39L10.71 7.39C5.10 7.39 2.16 10.27 2.16 14.52C2.16 17.91 3.77 19.91 6.66 21.97L1.65 29.42L5.80 29.42L11.38 21.08L9.45 19.78C7.10 18.20 5.96 16.96 5.96 14.30C5.96 11.95 7.61 10.37 10.75 10.37L12.46 10.37ZM86.41 29.73C88.16 29.73 89.39 29.42 90.31 28.75L90.31 25.68C89.36 26.34 88.22 26.75 86.64 26.75C83.94 26.75 82.83 24.66 82.83 21.37C82.83 17.91 84.20 16.14 86.67 16.14C88.13 16.14 89.55 16.64 90.31 17.12L90.31 13.92C89.52 13.47 88.13 13.16 86.26 13.16C81.44 13.16 78.93 16.61 78.93 21.46C78.93 26.79 81.37 29.73 86.41 29.73ZM62.83 28.34L62.83 25.26C61.66 26.06 59.69 26.75 57.85 26.75C55.09 26.75 54.05 25.46 53.89 22.79L62.99 22.79L62.99 20.80C62.99 15.25 60.55 13.16 56.77 13.16C52.18 13.16 49.99 16.67 49.99 21.49C49.99 27.04 52.72 29.73 57.54 29.73C59.94 29.73 61.72 29.10 62.83 28.34ZM74.88 29.42L79.15 29.42L73.10 20.95L78.43 13.47L74.62 13.47L69.30 20.95L69.30 13.47L65.52 13.47L65.52 29.42L69.30 29.42L69.30 21.71ZM49.07 26.44L47.39 26.44L47.39 13.47L36.39 13.47L36.39 14.84C36.39 18.73 36.14 23.77 34.81 26.44L33.63 26.44L33.63 33.06L37.12 33.06L37.12 29.42L45.58 29.42L45.58 33.06L49.07 33.06ZM28.28 13.47L28.28 19.78L23.24 19.78L23.24 13.47L19.46 13.47L19.46 29.42L23.24 29.42L23.24 22.76L28.28 22.76L28.28 29.42L32.05 29.42L32.05 13.47ZM56.71 16.14C58.58 16.14 59.15 17.69 59.15 19.69L59.15 20.00L53.89 20.00C53.99 17.47 54.90 16.14 56.71 16.14ZM43.62 26.44L38.29 26.44C39.34 24.03 39.63 19.69 39.63 16.93L39.63 16.45L43.62 16.45ZM106.92 29.42L110.28 29.42L114.72 13.00L114.72 29.42L118.40 29.42L118.40 7.39L113.26 7.39L108.79 23.90L104.29 7.39L99.19 7.39L99.19 29.42L102.49 29.42L102.49 13.00ZM133.77 28.34L133.77 25.26C132.60 26.06 130.64 26.75 128.80 26.75C126.04 26.75 124.99 25.46 124.83 22.79L133.93 22.79L133.93 20.80C133.93 15.25 131.49 13.16 127.72 13.16C123.12 13.16 120.94 16.67 120.94 21.49C120.94 27.04 123.66 29.73 128.48 29.73C130.89 29.73 132.66 29.10 133.77 28.34ZM127.66 16.14C129.53 16.14 130.10 17.69 130.10 19.69L130.10 20.00L124.83 20.00C124.93 17.47 125.85 16.14 127.66 16.14ZM147.37 16.45L147.37 13.47L134.72 13.47L134.72 16.45L139.16 16.45L139.16 29.42L142.94 29.42L142.94 16.45ZM153.08 13.47L149.59 13.47L149.59 34.01L153.36 34.01L153.36 27.55C154.32 28.97 155.71 29.73 157.33 29.73C161.00 29.73 163.54 26.79 163.54 21.43C163.54 16.10 161.07 13.16 157.52 13.16C155.74 13.16 154.28 13.98 153.27 15.53ZM156.38 26.75C154.38 26.75 153.36 25.14 153.36 21.46C153.36 17.75 154.44 16.14 156.57 16.14C158.63 16.14 159.64 17.75 159.64 21.43C159.64 25.14 158.56 26.75 156.38 26.75ZM166.08 13.47L166.08 29.42L169.44 29.42L175.21 19.56L175.21 29.42L178.85 29.42L178.85 13.47L175.49 13.47L169.72 23.33L169.72 13.47ZM191.37 29.42L195.65 29.42L189.60 20.95L194.92 13.47L191.12 13.47L185.79 20.95L185.79 13.47L182.02 13.47L182.02 29.42L185.79 29.42L185.79 21.71ZM208.52 18.54C208.52 14.68 206.56 13.22 202.56 13.22C200.06 13.22 198.09 14.01 196.95 14.68L196.95 17.82C197.97 17.05 200.19 16.23 202.12 16.23C203.93 16.23 204.75 16.86 204.75 18.58L204.75 19.46L204.15 19.46C198.38 19.46 195.81 21.37 195.81 24.60C195.81 27.83 197.78 29.64 200.69 29.64C202.91 29.64 203.86 28.91 204.59 28.15L204.75 28.15C204.78 28.56 204.91 29.10 205.04 29.42L208.71 29.42C208.59 28.12 208.52 26.82 208.52 25.52ZM204.75 25.61C204.27 26.31 203.39 26.88 202.06 26.88C200.47 26.88 199.68 25.99 199.68 24.63C199.68 22.82 200.98 22.16 204.21 22.16L204.75 22.16Z"/></svg>
