<?xml version="1.0" standalone="no"?>
<!DOCTYPE svg PUBLIC "-//W3C//DTD SVG 20010904//EN"
 "http://www.w3.org/TR/2001/REC-SVG-20010904/DTD/svg10.dtd">
<svg version="1.0" xmlns="http://www.w3.org/2000/svg"
 width="1152.000000pt" height="446.000000pt" viewBox="0 0 1152.000000 446.000000"
 preserveAspectRatio="xMidYMid meet">

<g transform="translate(0.000000,446.000000) scale(0.100000,-0.100000)"
fill="#000000" stroke="none">
<path d="M2600 4445 c-453 -71 -769 -382 -835 -822 -55 -361 68 -726 311 -929
203 -168 428 -247 708 -245 470 2 837 259 969 676 73 232 60 519 -33 746 -60
144 -186 302 -316 395 -216 155 -522 223 -804 179z m295 -490 c166 -44 287
-176 331 -362 23 -98 14 -255 -19 -347 -82 -222 -258 -329 -499 -304 -133 13
-260 102 -326 226 -51 97 -66 164 -66 292 0 98 4 126 26 188 48 133 124 224
232 277 93 45 217 57 321 30z"/>
<path d="M8965 4448 c-106 -11 -270 -51 -375 -91 l-85 -32 -3 -218 -2 -219 32
20 c97 58 269 106 438 122 290 27 498 -42 577 -193 22 -43 32 -193 12 -184
-174 75 -261 97 -426 104 -275 12 -467 -53 -629 -214 -289 -287 -225 -774 131
-991 179 -109 477 -136 699 -61 116 39 195 87 277 171 l67 67 7 -36 c19 -105
97 -190 205 -224 84 -26 235 -27 335 -2 l70 18 3 158 3 157 -38 0 c-45 0 -95
28 -120 67 -17 25 -18 67 -24 518 -6 519 -6 517 -57 652 -70 184 -246 319
-492 377 -177 43 -413 56 -605 34z m353 -1064 c42 -9 117 -34 166 -57 l88 -41
-4 -68 c-11 -143 -114 -277 -245 -318 -123 -38 -260 -21 -345 43 -143 107
-125 332 33 412 92 47 179 55 307 29z"/>
<path d="M7 4413 c-4 -3 -7 -114 -7 -245 l0 -238 285 0 285 0 0 -720 0 -720
270 0 270 0 0 720 0 720 285 0 285 0 -2 243 -3 242 -831 3 c-457 1 -834 -1
-837 -5z"/>
<path d="M4010 4078 c0 -295 3 -356 19 -433 61 -294 236 -480 526 -556 169
-44 439 -35 620 22 33 10 63 19 68 19 4 0 7 -144 7 -320 l0 -320 275 0 275 0
0 965 0 965 -272 -2 -273 -3 -3 -412 -2 -412 -54 -20 c-158 -59 -339 -66 -438
-18 -62 31 -134 102 -170 168 -22 43 -23 52 -28 369 l-5 325 -272 3 -273 2 0
-342z"/>
<path d="M6250 3455 l0 -965 275 0 275 0 0 380 0 381 152 -3 153 -3 224 -377
224 -378 300 0 c235 0 298 3 294 13 -2 6 -126 214 -275 461 l-271 448 47 38
c110 88 217 221 285 355 69 137 123 359 129 525 l3 85 -271 3 -271 2 -11 -117
c-21 -212 -69 -337 -174 -449 -105 -111 -220 -154 -420 -154 l-118 0 -2 358
-3 357 -272 3 -273 2 0 -965z"/>
<path d="M795 1496 c-85 -26 -107 -37 -145 -76 -62 -61 -83 -129 -78 -248 2
-70 8 -98 29 -137 88 -173 355 -131 376 59 8 69 -4 113 -45 158 -62 69 -145
88 -209 48 -39 -24 -42 -13 -8 28 27 32 43 39 150 71 102 30 102 30 70 85 -15
25 -30 45 -33 45 -4 -1 -52 -15 -107 -33z m53 -312 c34 -39 26 -108 -17 -141
-9 -7 -31 -13 -49 -13 -41 0 -92 46 -92 84 0 93 99 137 158 70z"/>
<path d="M11205 1478 c18 -61 65 -98 128 -98 65 0 110 32 127 89 l9 31 -44 0
c-34 0 -45 -4 -50 -19 -11 -36 -69 -36 -80 0 -5 15 -16 19 -51 19 -42 0 -45
-2 -39 -22z"/>
<path d="M1159 1329 c-20 -6 -52 -23 -70 -39 l-34 -29 31 -31 31 -32 39 21
c49 26 65 26 99 -1 32 -25 24 -32 -50 -43 -68 -10 -122 -33 -145 -63 -28 -34
-27 -110 1 -145 41 -54 140 -55 197 -4 l22 20 0 -26 c0 -26 2 -27 56 -27 l55
0 -3 153 c-3 140 -5 154 -26 185 -41 57 -126 83 -203 61z m121 -229 c0 -25
-32 -70 -54 -76 -40 -10 -71 -1 -74 22 -5 33 27 49 121 63 4 1 7 -4 7 -9z"/>
<path d="M4790 1329 c-14 -6 -35 -20 -47 -31 l-23 -21 0 26 c0 26 -2 27 -60
27 l-60 0 2 -282 3 -283 55 0 55 0 3 109 3 109 22 -20 c79 -72 210 -36 258 72
37 80 17 198 -42 252 -50 45 -118 62 -169 42z m83 -119 c48 -38 44 -130 -7
-165 -27 -20 -81 -19 -111 1 -52 34 -53 133 -2 169 31 21 89 19 120 -5z"/>
<path d="M5216 1326 c-47 -18 -104 -70 -122 -113 -16 -37 -18 -120 -4 -157 5
-14 26 -43 46 -66 67 -74 187 -87 282 -30 38 24 40 35 8 75 -23 27 -26 29 -47
16 -63 -38 -143 -32 -173 14 l-16 25 146 0 146 0 -4 60 c-7 103 -75 173 -178
185 -27 3 -61 -1 -84 -9z m104 -101 c17 -9 30 -17 30 -19 0 -3 3 -11 6 -20 5
-14 -5 -16 -75 -16 -92 0 -106 15 -48 50 39 24 49 25 87 5z"/>
<path d="M6680 1325 c-19 -9 -42 -23 -52 -32 -17 -15 -18 -14 -18 10 0 26 -2
27 -55 27 l-55 0 0 -285 0 -285 55 0 55 0 0 111 0 110 26 -20 c72 -57 157 -48
223 24 68 74 75 190 16 275 -46 66 -129 94 -195 65z m91 -124 c62 -62 20 -171
-66 -171 -53 0 -95 44 -95 98 0 93 97 137 161 73z"/>
<path d="M9060 1331 c-40 -13 -85 -38 -100 -56 -11 -14 -8 -21 20 -50 33 -34
34 -35 54 -16 30 27 63 34 96 21 37 -15 46 -38 17 -44 -12 -3 -46 -10 -75 -16
-29 -5 -66 -17 -82 -25 -52 -27 -75 -101 -48 -159 31 -70 143 -83 205 -24 l23
21 0 -26 c0 -26 2 -27 56 -27 l55 0 -3 154 c-3 139 -5 158 -24 183 -41 54
-132 84 -194 64z m106 -248 c-4 -16 -16 -36 -28 -45 -26 -23 -86 -24 -95 -2
-10 28 11 48 63 61 68 16 67 16 60 -14z"/>
<path d="M9888 1331 c-79 -25 -138 -93 -152 -172 -9 -53 17 -126 61 -171 70
-72 189 -84 281 -28 39 24 39 32 6 75 l-26 34 -26 -19 c-55 -38 -139 -30 -170
18 l-14 22 146 0 146 0 0 43 c0 65 -42 142 -94 172 -47 28 -117 39 -158 26z
m101 -117 c17 -14 31 -30 31 -35 0 -5 -39 -9 -86 -9 l-86 0 14 23 c17 24 54
47 80 47 9 0 30 -12 47 -26z"/>
<path d="M10806 1328 c-24 -7 -56 -28 -82 -53 -78 -78 -84 -182 -17 -273 65
-87 222 -102 317 -29 19 14 19 15 -10 55 l-29 40 -28 -20 c-38 -27 -109 -28
-144 -1 -53 39 -43 43 106 43 141 0 141 0 147 24 11 45 -22 130 -65 169 -58
53 -116 66 -195 45z m123 -125 l24 -28 -83 -3 c-45 -2 -85 0 -89 3 -3 4 9 20
28 37 27 24 39 29 65 24 17 -3 42 -18 55 -33z"/>
<path d="M1490 1130 l0 -200 55 0 55 0 0 75 0 75 70 0 69 0 3 -72 3 -73 58 -3
57 -3 0 201 0 200 -60 0 -60 0 0 -70 0 -70 -70 0 -70 0 0 70 0 70 -55 0 -55 0
0 -200z"/>
<path d="M1960 1130 l0 -200 55 0 55 0 0 48 c1 36 7 54 26 76 15 17 29 25 32
19 4 -5 27 -40 51 -76 l43 -67 64 0 64 0 -76 114 -76 115 18 25 c11 13 43 52
72 85 l54 61 -69 -1 -68 0 -65 -76 -65 -76 -3 76 -3 77 -54 0 -55 0 0 -200z"/>
<path d="M2608 1228 c-4 -115 -24 -173 -65 -189 -23 -8 -24 -12 -21 -101 l3
-93 55 0 55 0 3 43 3 42 110 0 109 0 0 -45 0 -45 55 0 55 0 0 100 0 100 -25 0
-25 0 0 145 0 145 -154 0 -154 0 -4 -102z m202 -98 l0 -90 -64 0 -65 0 18 43
c11 23 22 63 26 90 6 47 6 47 46 47 l39 0 0 -90z"/>
<path d="M3098 1206 c-5 -139 -19 -176 -63 -176 -23 0 -25 -4 -25 -49 0 -53 8
-61 59 -61 77 0 128 82 138 223 l6 77 48 0 49 0 0 -145 0 -145 55 0 55 0 0
200 0 200 -159 0 -158 0 -5 -124z"/>
<path d="M3606 1320 c-91 -28 -127 -144 -65 -215 l31 -35 -28 -47 c-15 -27
-34 -58 -42 -70 -14 -23 -14 -23 49 -23 l64 0 33 60 c29 52 37 60 62 60 30 0
30 0 30 -60 l0 -60 55 0 55 0 0 200 0 200 -107 -1 c-60 0 -121 -5 -137 -9z
m134 -130 l0 -40 -50 0 c-40 0 -51 4 -60 21 -18 32 12 59 67 59 l43 0 0 -40z"/>
<path d="M4132 1133 l3 -198 55 0 55 0 3 143 3 142 69 0 70 0 0 -145 0 -145
55 0 55 0 0 200 0 200 -185 0 -185 0 2 -197z"/>
<path d="M5598 1233 c-5 -107 -32 -181 -69 -190 -17 -5 -19 -15 -19 -104 l0
-99 55 0 55 0 0 45 0 45 109 0 110 0 3 -42 3 -43 55 0 55 0 0 95 0 95 -27 3
-28 3 0 145 0 144 -149 0 -148 0 -5 -97z m192 -103 l0 -90 -64 0 -63 0 19 38
c10 22 21 62 25 90 l6 52 38 0 39 0 0 -90z"/>
<path d="M6030 1130 l0 -200 55 0 55 0 0 145 0 145 70 0 69 0 3 -142 3 -143
55 0 55 0 3 198 2 197 -185 0 -185 0 0 -200z"/>
<path d="M6990 1130 l0 -200 50 0 50 0 82 110 83 111 3 -111 3 -110 54 0 55 0
0 200 0 200 -49 0 -49 0 -79 -106 -78 -105 -3 105 -3 106 -59 0 -60 0 0 -200z"/>
<path d="M7470 1130 l0 -200 55 0 55 0 0 75 0 75 75 0 75 0 0 -75 0 -75 55 0
55 0 0 200 0 200 -55 0 -55 0 0 -70 0 -70 -75 0 -75 0 0 70 0 70 -55 0 -55 0
0 -200z"/>
<path d="M7940 1130 l0 -200 50 0 50 0 82 110 83 111 3 -111 3 -110 54 0 55 0
0 200 0 200 -50 0 -50 0 -82 -110 -83 -111 -3 111 -3 110 -54 0 -55 0 0 -200z"/>
<path d="M8420 1130 l0 -200 55 0 54 0 3 113 3 112 49 -64 49 -64 31 39 c17
21 41 50 53 64 l22 25 1 -112 0 -113 55 0 55 0 0 200 0 200 -49 0 c-49 0 -49
0 -108 -74 l-59 -74 -58 74 -57 74 -49 0 -50 0 0 -200z"/>
<path d="M9340 1275 l0 -55 60 0 60 0 0 -145 0 -145 55 0 55 0 0 145 0 144 63
3 62 3 3 53 3 52 -180 0 -181 0 0 -55z"/>
<path d="M10258 1206 c-4 -138 -18 -176 -63 -176 -23 0 -25 -3 -25 -50 0 -45
3 -50 25 -56 43 -11 92 5 119 37 32 38 46 84 53 182 l6 77 48 0 49 0 0 -145 0
-146 58 3 57 3 3 198 2 197 -164 0 -164 0 -4 -124z"/>
<path d="M11142 1133 l3 -198 50 0 50 0 82 109 83 108 0 -111 0 -111 55 0 55
0 0 200 0 200 -49 0 -49 0 -79 -106 -78 -105 -3 105 -3 106 -60 0 -59 0 2
-197z"/>
<path d="M5907 734 c-3 -3 -1 -18 4 -33 25 -65 93 -99 161 -81 43 12 88 61 88
96 0 21 -4 24 -39 24 -30 0 -40 -4 -44 -20 -10 -39 -87 -34 -87 6 0 14 -70 21
-83 8z"/>
<path d="M570 371 l0 -201 49 0 49 0 79 106 78 105 3 -105 3 -106 54 0 55 0 0
201 0 200 -47 -3 -48 -3 -82 -108 -82 -109 -3 109 -3 108 -52 3 -53 3 0 -200z"/>
<path d="M1230 370 l0 -200 55 0 55 0 0 145 0 145 75 0 75 0 0 -145 0 -145 55
0 55 0 -2 198 -3 197 -182 3 -183 2 0 -200z"/>
<path d="M1700 285 l0 -285 55 0 55 0 0 112 0 111 23 -21 c48 -45 115 -54 175
-23 125 64 148 249 42 345 -46 41 -74 50 -136 43 -32 -3 -55 -13 -75 -33 l-29
-28 0 32 0 32 -55 0 -55 0 0 -285z m271 156 c24 -24 29 -38 29 -76 0 -63 -31
-95 -92 -95 -65 1 -98 36 -98 105 0 51 44 95 95 95 27 0 44 -8 66 -29z"/>
<path d="M2279 547 c-51 -27 -98 -95 -106 -154 -18 -133 100 -246 240 -229 48
5 128 42 133 61 2 6 -9 25 -24 44 l-28 33 -35 -21 c-50 -31 -101 -28 -141 9
l-33 29 142 1 143 0 6 25 c9 36 -13 114 -42 153 -56 72 -169 94 -255 49z m159
-104 l27 -28 -42 -3 c-23 -2 -64 -2 -90 0 l-48 3 27 28 c20 19 37 27 63 27 26
0 43 -8 63 -27z"/>
<path d="M2695 558 c-2 -7 -5 -56 -7 -108 -4 -104 -24 -156 -66 -175 -20 -9
-22 -16 -22 -102 l0 -93 60 0 60 0 0 45 0 45 110 0 110 0 0 -45 0 -45 55 0 55
0 0 95 c0 94 0 95 -25 95 l-24 0 -3 148 -3 147 -148 3 c-113 2 -148 0 -152
-10z m195 -193 l0 -95 -66 0 c-59 0 -65 2 -59 18 17 40 35 99 40 135 6 36 7
37 45 37 l40 0 0 -95z"/>
<path d="M3127 563 c-4 -3 -7 -93 -7 -200 l0 -193 55 0 55 0 0 145 0 145 75 0
75 0 0 -145 0 -145 55 0 55 0 0 200 0 200 -178 0 c-98 0 -182 -3 -185 -7z"/>
<path d="M3597 564 c-4 -4 -7 -133 -7 -286 l0 -278 60 0 60 0 0 106 0 105 30
-21 c67 -48 155 -35 214 30 60 67 72 160 32 246 -31 67 -74 97 -145 102 -47 3
-62 0 -93 -21 l-37 -26 -3 22 c-3 19 -10 22 -53 25 -28 2 -54 0 -58 -4z m262
-120 c38 -32 49 -80 27 -122 -20 -38 -44 -52 -89 -52 -45 0 -85 32 -93 76 -18
96 82 160 155 98z"/>
<path d="M4090 370 l0 -200 49 0 49 0 79 106 78 105 3 -105 3 -106 60 0 59 0
-2 198 -3 197 -47 3 -47 3 -83 -111 -83 -111 -3 111 -3 110 -54 0 -55 0 0
-200z"/>
<path d="M4665 561 c-70 -17 -115 -73 -115 -143 0 -34 32 -98 50 -98 17 0 11
-18 -30 -85 l-40 -65 65 0 65 0 27 55 c25 50 30 55 60 55 l33 0 0 -55 0 -55
55 0 55 0 0 200 0 200 -97 -1 c-54 -1 -112 -4 -128 -8z m115 -136 l0 -45 -43
0 c-48 0 -67 13 -67 47 0 27 27 41 78 42 31 1 32 0 32 -44z"/>
<path d="M4950 515 l0 -55 60 0 60 0 0 -145 0 -145 55 0 55 0 0 145 0 145 66
0 65 0 -3 53 -3 52 -177 3 -178 2 0 -55z"/>
<path d="M5367 564 c-4 -4 -7 -94 -7 -201 l0 -193 53 0 53 0 79 107 80 107 3
-107 3 -107 54 0 55 0 0 201 0 200 -47 -3 -48 -3 -82 -108 -82 -109 -3 109 -3
108 -50 3 c-28 2 -54 0 -58 -4z"/>
<path d="M5847 564 c-4 -4 -7 -94 -7 -201 l0 -193 53 0 53 0 79 107 80 107 3
-107 3 -107 54 0 55 0 0 200 0 200 -48 0 -48 0 -79 -107 -80 -107 -5 104 -5
105 -50 3 c-28 2 -54 0 -58 -4z"/>
</g>
</svg>
