<?xml version="1.0" encoding="utf-8"?>
<!-- Generator: Adobe Illustrator 28.0.0, SVG Export Plug-In . SVG Version: 6.00 Build 0)  -->
<svg version="1.1" id="Слой_1" xmlns="http://www.w3.org/2000/svg" xmlns:xlink="http://www.w3.org/1999/xlink" x="0px" y="0px"
	 viewBox="0 0 1000 154.2" style="enable-background:new 0 0 1000 154.2;" xml:space="preserve">
<style type="text/css">
	.st0{fill:#F905DB;}
</style>
<path class="st0" d="M934,78.7c0-6.3,8.6-11.3,19.8-11.3c11.7,0,23.6,5.5,31.7,14.6l14.6-17.8c-13.9-12.3-28-18.7-45.5-18.7
	c-21.9,0-44.6,10.1-44.6,33.3c0,28.5,24.6,30.5,44.6,32.2c11.2,0.8,21.1,1.7,21.1,9c0,8-11.3,11.6-21.3,11.6
	c-11.6,0-24.1-4.9-33.3-15.9l-15.5,16.5c12.4,15.2,30.4,21.8,47.9,21.8c22.1,0,46.3-10.5,46.3-34.5c0-27.1-24.8-29.8-43.9-31.7
	C943.9,86.6,934,85.5,934,78.7L934,78.7z M823.1,85.5c4-10,12.5-15.8,25.2-15.8c12.8,0,20.4,6.1,23.6,15.8H823.1z M849.5,45.5
	c-30.1,0-54.3,23.5-54.3,54.4c0,29.1,21.4,54.1,53,54.1c19,0,34.5-9.2,45.4-24.8L877,115c-5.9,9-16.5,14.3-29.2,14.3
	c-12.9,0-26.3-9.6-27.3-23.9h78.7V97C898.9,67.3,878.7,45.5,849.5,45.5L849.5,45.5z M541.3,45.5C511.2,45.5,487,69,487,99.8
	c0,29.1,21.4,54.1,53,54.1c19,0,34.5-9.2,45.4-24.8L568.8,115c-5.9,9-16.5,14.3-29.2,14.3c-12.9,0-26.3-9.6-27.3-23.9H591V97
	C590.8,67.3,570.5,45.5,541.3,45.5z M758.8,150.2h24.1v-101h-24.1V150.2L758.8,150.2z M770.8,0c-9.8,0-18.1,8.2-18.1,18.4
	c0,10.1,8.1,17.6,18.6,17.6c10.2,0,17.7-7.2,17.7-17.2C788.9,8.6,780.7,0,770.8,0z M421.6,45.3c-11.3,0-21.6,3.4-30.2,9.3V1.2h-24.1
	v98.6c0,30,24.5,54.1,54.2,54.1c30,0,54.6-24,54.6-54.4C475.9,69.3,451.8,45.3,421.6,45.3z M296.3,47c-26.9,2.8-48.8,25.9-48.8,53.5
	c0,29.2,24.9,53.6,54.1,53.6c29,0,54.1-24.5,54.1-53.6c0-12.4-4.5-23.9-11.7-32.9L290.5,1.3h-31.2C259.3,1.3,296.3,47,296.3,47z
	 M109.5,106.7L87.5,49.2H70.6l-22.2,57.5L26.3,49.2H0l38.8,101.3h16.9l23.3-60.3l23.5,60.3h16.9L158,49.2h-26.1
	C131.8,49.2,109.5,106.7,109.5,106.7z M627.7,72.2v-23h-24.1v101h24.1v-42.7c0-20.7,22.2-33.4,44.2-33.4v-25h-2.4
	C650.8,49.2,637.3,55.9,627.7,72.2L627.7,72.2z M704.2,72.2v-23h-24.1v101h24.1v-42.7c0-20.7,22.2-33.4,44.2-33.4v-25H746
	C727.5,49.2,714,55.9,704.2,72.2L704.2,72.2z M211,150.2h24.1V1.3H211L211,150.2L211,150.2z M301.7,129.8c-16.6,0-30.1-13.4-30.1-30
	c0-16.8,13.5-30.1,30-30.1c16.7,0,30.4,13.4,30.4,30.1C331.9,116.5,318.3,129.8,301.7,129.8z M421.4,129.8
	c-16.6,0-30.1-13.4-30.1-30c0,0,0-0.1,0-0.1c0-16.5,12.9-30,30.2-30s30.2,13.5,30.2,29.9C451.8,116.7,438.1,129.8,421.4,129.8z
	 M169.2,150.2h24.1v-101h-24.1V150.2L169.2,150.2z M181,0c-9.8,0-18,8.2-18,18.6c0,10.5,8.6,17.6,18,17.6c10.5,0,18.4-8.7,18.4-18.1
	C199.3,8.6,191,0,181,0z M514.9,85.5c4.1-10,12.5-15.8,25.1-15.8c12.9,0,20.7,6.1,24,15.8C564,85.5,514.9,85.5,514.9,85.5z"/>
</svg>
